<svg width="17" height="16" viewBox="0 0 17 16" fill="none" xmlns="http://www.w3.org/2000/svg">
<path d="M8.5 1.3335C4.8172 1.3335 1.83333 4.31737 1.83333 8.00016C1.83333 11.683 4.8172 14.6668 8.5 14.6668C12.1828 14.6668 15.1667 11.683 15.1667 8.00016C15.1667 4.31737 12.1828 1.3335 8.5 1.3335ZM12.371 8.75285C12.371 8.93027 12.2258 9.07543 12.0484 9.07543H9.57527V11.5485C9.57527 11.726 9.43011 11.8711 9.25269 11.8711H7.74731C7.56989 11.8711 7.42473 11.726 7.42473 11.5485V9.07543H4.95161C4.77419 9.07543 4.62903 8.93027 4.62903 8.75285V7.24747C4.62903 7.07006 4.77419 6.92489 4.95161 6.92489H7.42473V4.45178C7.42473 4.27436 7.56989 4.12919 7.74731 4.12919H9.25269C9.43011 4.12919 9.57527 4.27436 9.57527 4.45178V6.92489H12.0484C12.2258 6.92489 12.371 7.07006 12.371 7.24747V8.75285Z" fill="white"/>
</svg>
