<svg width="24" height="24" viewBox="0 0 24 24" fill="none" xmlns="http://www.w3.org/2000/svg">
<path fill-rule="evenodd" clip-rule="evenodd" d="M11.2935 7.16356C9.73939 5.61215 7.21897 5.61215 5.66486 7.16356C4.13708 8.6887 4.11216 11.1455 5.58987 12.7007L5.66927 12.782L11.8263 18.9283C11.922 19.0239 12.078 19.0239 12.1737 18.9283L18.3307 12.782L18.4101 12.7007C19.8878 11.1455 19.8629 8.6887 18.3351 7.16356C16.781 5.61215 14.2606 5.61215 12.7065 7.16356L12 7.86883L11.2935 7.16356ZM12 5.14382C9.66155 3.43857 6.36365 3.64001 4.25187 5.74812C1.95189 8.04412 1.91655 11.7452 4.14608 14.0847L4.15038 14.0892L4.24747 14.1886L10.4133 20.3438C11.2898 21.2187 12.7102 21.2187 13.5867 20.3438L19.7525 14.1886L19.8496 14.0892L19.8539 14.0847C22.0834 11.7452 22.0481 8.04412 19.7481 5.74812C17.6363 3.64001 14.3384 3.43857 12 5.14382Z" fill="#4B4B4B"/>
</svg>
