<svg width="24" height="24" viewBox="0 0 24 24" fill="none" xmlns="http://www.w3.org/2000/svg">
<path fill-rule="evenodd" clip-rule="evenodd" d="M10.3792 3.01125C10.8377 2.08219 12.1625 2.08219 12.6211 3.01125L14.9562 7.74273L20.1777 8.50145C21.203 8.65044 21.6123 9.9104 20.8705 10.6336L17.0921 14.3165L17.9841 19.5169C18.1592 20.5381 17.0874 21.3167 16.1704 20.8346L11.5001 18.3793L6.82989 20.8346C5.91285 21.3168 4.84106 20.538 5.0162 19.5169L5.90814 14.3165L2.12983 10.6336C1.38793 9.9104 1.79732 8.65044 2.82259 8.50145L8.04409 7.74273L10.3792 3.01125ZM11.5001 5.25912L9.66306 8.98144C9.48099 9.35037 9.12903 9.60608 8.72189 9.66524L4.61406 10.2621L7.58651 13.1596C7.88112 13.4467 8.01556 13.8605 7.94601 14.266L7.24431 18.3572L10.9185 16.4256C11.2826 16.2341 11.7177 16.2341 12.0818 16.4256L15.756 18.3572L15.0543 14.266C14.9847 13.8605 15.1192 13.4467 15.4138 13.1596L18.3862 10.2621L14.2784 9.66524C13.8712 9.60608 13.5193 9.35037 13.3372 8.98144L11.5001 5.25912Z" fill="#4B4B4B"/>
</svg>
