<svg width="70" height="14" viewBox="0 0 70 14" fill="none" xmlns="http://www.w3.org/2000/svg">
<path d="M7 0L8.85152 4.4516L13.6574 4.83688L9.99583 7.9734L11.1145 12.6631L7 10.15L2.8855 12.6631L4.00417 7.9734L0.342604 4.83688L5.14848 4.4516L7 0Z" fill="#666666"/>
<path d="M21 0L22.8515 4.4516L27.6574 4.83688L23.9958 7.9734L25.1145 12.6631L21 10.15L16.8855 12.6631L18.0042 7.9734L14.3426 4.83688L19.1485 4.4516L21 0Z" fill="#666666"/>
<path d="M35 0L36.8515 4.4516L41.6574 4.83688L37.9958 7.9734L39.1145 12.6631L35 10.15L30.8855 12.6631L32.0042 7.9734L28.3426 4.83688L33.1485 4.4516L35 0Z" fill="#666666"/>
<path d="M49 0L50.8515 4.4516L55.6574 4.83688L51.9958 7.9734L53.1145 12.6631L49 10.15L44.8855 12.6631L46.0042 7.9734L42.3426 4.83688L47.1485 4.4516L49 0Z" fill="#666666"/>
<path d="M63 0L64.8515 4.4516L69.6574 4.83688L65.9958 7.9734L67.1145 12.6631L63 10.15L58.8855 12.6631L60.0042 7.9734L56.3426 4.83688L61.1485 4.4516L63 0Z" fill="#DDDDDD"/>
</svg>
