<svg width="17" height="17" viewBox="0 0 17 17" fill="none" xmlns="http://www.w3.org/2000/svg">
<path fill-rule="evenodd" clip-rule="evenodd" d="M8.77011 0.5C4.35193 0.5 0.770111 4.08182 0.770111 8.5C0.770111 12.9182 4.35193 16.5 8.77011 16.5C13.1883 16.5 16.7701 12.9182 16.7701 8.5C16.7701 4.08182 13.1883 0.5 8.77011 0.5ZM2.22466 8.5C2.22466 7.64044 2.39396 6.78929 2.7229 5.99516C3.05184 5.20103 3.53397 4.47947 4.14178 3.87166C4.74958 3.26386 5.47114 2.78173 6.26527 2.45279C7.05941 2.12385 7.91055 1.95455 8.77011 1.95455C9.62967 1.95455 10.4808 2.12385 11.2749 2.45279C12.0691 2.78173 12.7906 3.26386 13.3984 3.87166C14.0062 4.47947 14.4884 5.20103 14.8173 5.99516C15.1463 6.78929 15.3156 7.64044 15.3156 8.5C15.3156 10.236 14.626 11.9008 13.3984 13.1283C12.1709 14.3558 10.5061 15.0455 8.77011 15.0455C7.03415 15.0455 5.36929 14.3558 4.14178 13.1283C2.91426 11.9008 2.22466 10.236 2.22466 8.5ZM9.49738 4.86364C9.49738 4.67075 9.42076 4.48577 9.28437 4.34938C9.14798 4.21299 8.963 4.13636 8.77011 4.13636C8.57723 4.13636 8.39224 4.21299 8.25585 4.34938C8.11946 4.48577 8.04284 4.67075 8.04284 4.86364V8.5C8.04284 8.61291 8.06913 8.72426 8.11962 8.82525C8.17011 8.92623 8.24342 9.01408 8.33375 9.08182L11.2428 11.2636C11.3971 11.3794 11.5911 11.4291 11.7821 11.4018C11.973 11.3745 12.1453 11.2725 12.261 11.1182C12.3768 10.9639 12.4264 10.7699 12.3992 10.579C12.3719 10.388 12.2699 10.2157 12.1156 10.1L9.49738 8.13636V4.86364Z" fill="#333333"/>
</svg>
