<svg width="24" height="24" viewBox="0 0 24 24" fill="none" xmlns="http://www.w3.org/2000/svg">
<path d="M22 5.90668C21.2504 6.23405 20.4565 6.44871 19.644 6.54368C20.4968 6.04291 21.138 5.24878 21.448 4.30968C20.64 4.78 19.7587 5.11128 18.841 5.28968C18.4545 4.88488 17.9897 4.56306 17.4748 4.34385C16.9598 4.12464 16.4056 4.01264 15.846 4.01468C13.58 4.01468 11.743 5.82468 11.743 8.05468C11.743 8.37068 11.779 8.67968 11.849 8.97468C10.2236 8.89737 8.63212 8.48208 7.17617 7.75531C5.72022 7.02855 4.43176 6.00626 3.393 4.75368C3.02883 5.36808 2.83742 6.06946 2.839 6.78368C2.8397 7.45164 3.00683 8.10891 3.32529 8.69607C3.64375 9.28323 4.1035 9.78179 4.663 10.1467C4.01248 10.1257 3.37602 9.952 2.805 9.63968V9.68968C2.805 11.6477 4.22 13.2807 6.095 13.6527C5.74261 13.7462 5.37958 13.7936 5.015 13.7937C4.75 13.7937 4.493 13.7687 4.242 13.7187C4.51008 14.5266 5.02311 15.231 5.70982 15.734C6.39653 16.237 7.22284 16.5137 8.074 16.5257C6.61407 17.6502 4.82182 18.2577 2.979 18.2527C2.647 18.2527 2.321 18.2327 2 18.1967C3.88125 19.3874 6.06259 20.018 8.289 20.0147C15.836 20.0147 19.962 13.8577 19.962 8.51868L19.948 7.99568C20.7529 7.42935 21.4481 6.72152 22 5.90668Z" fill="white"/>
</svg>
