<svg width="17" height="16" viewBox="0 0 17 16" fill="none" xmlns="http://www.w3.org/2000/svg">
<mask id="path-1-outside-1_68_1518" maskUnits="userSpaceOnUse" x="-0.601044" y="0" width="18" height="16" fill="black">
<rect fill="white" x="-0.601044" width="18" height="16"/>
<path fill-rule="evenodd" clip-rule="evenodd" d="M16.399 5.72157C16.399 3.73411 14.7441 2.11833 12.7166 2.11833C12.262 2.11647 11.811 2.19873 11.3863 2.36093C11.0375 1.93494 10.5983 1.59184 10.1006 1.35646C9.60288 1.12109 9.05905 0.999328 8.50848 1C7.94169 0.999439 7.3822 1.12782 6.87235 1.37544C6.36251 1.62306 5.91568 1.98342 5.56569 2.42924C5.09738 2.22463 4.59192 2.11878 4.08086 2.11833C2.05337 2.11833 0.398956 3.73411 0.398956 5.72157C0.398956 7.17577 1.2728 8.45615 2.613 9.02427V15.5887H14.1844V9.02379C15.5246 8.45615 16.399 7.17577 16.399 5.72157ZM13.5697 8.24841L13.2423 8.35299V14.6465H3.55515V8.35299L3.22775 8.24841C2.09105 7.88474 1.34063 6.87758 1.34063 5.72157C1.34063 4.25983 2.56872 3.06048 4.08086 3.06048C4.57212 3.06053 5.0544 3.19212 5.4776 3.44158L5.88178 3.68277L6.12344 3.27858C6.61618 2.45562 7.52771 1.94215 8.50942 1.94215C8.97213 1.94189 9.42755 2.05729 9.8343 2.27786C10.241 2.49843 10.5862 2.81717 10.8384 3.2051L11.0739 3.56453L11.4536 3.36385C11.8434 3.16089 12.2771 3.05672 12.7166 3.06048C14.2287 3.06048 15.4568 4.25983 15.4568 5.72157C15.4568 6.87758 14.7064 7.88474 13.5697 8.24841ZM11.2251 11.8255H5.57227V12.7677H11.2251V11.8255Z"/>
</mask>
<path fill-rule="evenodd" clip-rule="evenodd" d="M16.399 5.72157C16.399 3.73411 14.7441 2.11833 12.7166 2.11833C12.262 2.11647 11.811 2.19873 11.3863 2.36093C11.0375 1.93494 10.5983 1.59184 10.1006 1.35646C9.60288 1.12109 9.05905 0.999328 8.50848 1C7.94169 0.999439 7.3822 1.12782 6.87235 1.37544C6.36251 1.62306 5.91568 1.98342 5.56569 2.42924C5.09738 2.22463 4.59192 2.11878 4.08086 2.11833C2.05337 2.11833 0.398956 3.73411 0.398956 5.72157C0.398956 7.17577 1.2728 8.45615 2.613 9.02427V15.5887H14.1844V9.02379C15.5246 8.45615 16.399 7.17577 16.399 5.72157ZM13.5697 8.24841L13.2423 8.35299V14.6465H3.55515V8.35299L3.22775 8.24841C2.09105 7.88474 1.34063 6.87758 1.34063 5.72157C1.34063 4.25983 2.56872 3.06048 4.08086 3.06048C4.57212 3.06053 5.0544 3.19212 5.4776 3.44158L5.88178 3.68277L6.12344 3.27858C6.61618 2.45562 7.52771 1.94215 8.50942 1.94215C8.97213 1.94189 9.42755 2.05729 9.8343 2.27786C10.241 2.49843 10.5862 2.81717 10.8384 3.2051L11.0739 3.56453L11.4536 3.36385C11.8434 3.16089 12.2771 3.05672 12.7166 3.06048C14.2287 3.06048 15.4568 4.25983 15.4568 5.72157C15.4568 6.87758 14.7064 7.88474 13.5697 8.24841ZM11.2251 11.8255H5.57227V12.7677H11.2251V11.8255Z" fill="#333333"/>
<path d="M12.7166 2.11833L12.7162 2.21833H12.7166V2.11833ZM11.3863 2.36093L11.3089 2.42429L11.3546 2.48008L11.4219 2.45435L11.3863 2.36093ZM10.1006 1.35646L10.1434 1.26606V1.26606L10.1006 1.35646ZM8.50848 1L8.50838 1.1L8.5086 1.1L8.50848 1ZM6.87235 1.37544L6.82867 1.28549V1.28549L6.87235 1.37544ZM5.56569 2.42924L5.52565 2.52088L5.59656 2.55186L5.64434 2.49099L5.56569 2.42924ZM4.08086 2.11833L4.08095 2.01833H4.08086V2.11833ZM2.613 9.02427H2.713V8.95804L2.65203 8.9322L2.613 9.02427ZM2.613 15.5887H2.513V15.6887H2.613V15.5887ZM14.1844 15.5887V15.6887H14.2844V15.5887H14.1844ZM14.1844 9.02379L14.1454 8.93171L14.0844 8.95755V9.02379H14.1844ZM13.2423 8.35299L13.2119 8.25773L13.1423 8.27995V8.35299H13.2423ZM13.5697 8.24841L13.6001 8.34367L13.6002 8.34365L13.5697 8.24841ZM13.2423 14.6465V14.7465H13.3423V14.6465H13.2423ZM3.55515 14.6465H3.45515V14.7465H3.55515V14.6465ZM3.55515 8.35299H3.65515V8.27995L3.58557 8.25773L3.55515 8.35299ZM3.22775 8.24841L3.19728 8.34365L3.19732 8.34367L3.22775 8.24841ZM4.08086 3.06048L4.08087 2.96048H4.08086V3.06048ZM5.4776 3.44158L5.52884 3.3557L5.52838 3.35543L5.4776 3.44158ZM5.88178 3.68277L5.83053 3.76864L5.91633 3.81984L5.96761 3.73408L5.88178 3.68277ZM6.12344 3.27858L6.03764 3.22721L6.03761 3.22727L6.12344 3.27858ZM8.50942 1.94215V2.04215H8.50948L8.50942 1.94215ZM9.8343 2.27786L9.88197 2.18995L9.8343 2.27786ZM10.8384 3.2051L10.7546 3.2596L10.7548 3.25991L10.8384 3.2051ZM11.0739 3.56453L10.9903 3.61934L11.0402 3.69547L11.1207 3.65294L11.0739 3.56453ZM11.4536 3.36385L11.4074 3.27515L11.4069 3.27544L11.4536 3.36385ZM12.7166 3.06048L12.7157 3.16048H12.7166V3.06048ZM5.57227 11.8255V11.7255H5.47227V11.8255H5.57227ZM11.2251 11.8255H11.3251V11.7255H11.2251V11.8255ZM5.57227 12.7677H5.47227V12.8677H5.57227V12.7677ZM11.2251 12.7677V12.8677H11.3251V12.7677H11.2251ZM12.7166 2.21833C14.691 2.21833 16.299 3.79144 16.299 5.72157H16.499C16.499 3.67678 14.7972 2.01833 12.7166 2.01833V2.21833ZM11.4219 2.45435C11.8351 2.29654 12.2739 2.21652 12.7162 2.21833L12.717 2.01833C12.25 2.01643 11.7868 2.10091 11.3506 2.26752L11.4219 2.45435ZM10.0578 1.44686C10.5422 1.6759 10.9695 2.00977 11.3089 2.42429L11.4636 2.29758C11.1055 1.86012 10.6545 1.50778 10.1434 1.26606L10.0578 1.44686ZM8.5086 1.1C9.04435 1.09935 9.57353 1.21782 10.0578 1.44686L10.1434 1.26606C9.63223 1.02435 9.07375 0.89931 8.50836 0.900003L8.5086 1.1ZM6.91604 1.46539C7.41224 1.2244 7.95676 1.09945 8.50838 1.1L8.50858 0.900003C7.92662 0.899424 7.35215 1.03125 6.82867 1.28549L6.91604 1.46539ZM5.64434 2.49099C5.98497 2.0571 6.41984 1.70638 6.91604 1.46539L6.82867 1.28549C6.30518 1.53973 5.84639 1.90974 5.48703 2.36749L5.64434 2.49099ZM4.08078 2.21833C4.57808 2.21877 5.06995 2.32177 5.52565 2.52088L5.60572 2.33761C5.12482 2.12749 4.60576 2.0188 4.08095 2.01833L4.08078 2.21833ZM0.498956 5.72157C0.498956 3.79142 2.10649 2.21833 4.08086 2.21833V2.01833C2.00024 2.01833 0.298956 3.6768 0.298956 5.72157H0.498956ZM2.65203 8.9322C1.34761 8.37925 0.498956 7.13436 0.498956 5.72157H0.298956C0.298956 7.21719 1.19799 8.53305 2.57397 9.11633L2.65203 8.9322ZM2.713 15.5887V9.02427H2.513V15.5887H2.713ZM14.1844 15.4887H2.613V15.6887H14.1844V15.4887ZM14.0844 9.02379V15.5887H14.2844V9.02379H14.0844ZM16.299 5.72157C16.299 7.13434 15.4499 8.37923 14.1454 8.93171L14.2234 9.11588C15.5994 8.53307 16.499 7.2172 16.499 5.72157H16.299ZM13.2727 8.44824L13.6001 8.34367L13.5393 8.15315L13.2119 8.25773L13.2727 8.44824ZM13.3423 14.6465V8.35299H13.1423V14.6465H13.3423ZM3.55515 14.7465H13.2423V14.5465H3.55515V14.7465ZM3.45515 8.35299V14.6465H3.65515V8.35299H3.45515ZM3.19732 8.34367L3.52472 8.44824L3.58557 8.25773L3.25818 8.15315L3.19732 8.34367ZM1.24063 5.72157C1.24063 6.92281 2.02083 7.96727 3.19728 8.34365L3.25822 8.15316C2.16127 7.80221 1.44063 6.83236 1.44063 5.72157H1.24063ZM4.08086 2.96048C2.51611 2.96048 1.24063 4.20202 1.24063 5.72157H1.44063C1.44063 4.31764 2.62133 3.16048 4.08086 3.16048V2.96048ZM5.52838 3.35543C5.08979 3.0969 4.58998 2.96053 4.08087 2.96048L4.08085 3.16048C4.55425 3.16053 5.019 3.28733 5.42682 3.52772L5.52838 3.35543ZM5.93302 3.59689L5.52884 3.3557L5.42635 3.52745L5.83053 3.76864L5.93302 3.59689ZM6.03761 3.22727L5.79595 3.63145L5.96761 3.73408L6.20927 3.3299L6.03761 3.22727ZM8.50942 1.84215C7.49322 1.84215 6.54879 2.37351 6.03764 3.22721L6.20923 3.32996C6.68357 2.53773 7.56219 2.04215 8.50942 2.04215V1.84215ZM9.88197 2.18995C9.46057 1.96144 8.98874 1.84188 8.50937 1.84215L8.50948 2.04215C8.95551 2.0419 9.39454 2.15314 9.78663 2.36577L9.88197 2.18995ZM10.9222 3.15059C10.661 2.74869 10.3034 2.41847 9.88197 2.18995L9.78663 2.36577C10.1787 2.57839 10.5115 2.88565 10.7546 3.2596L10.9222 3.15059ZM11.1576 3.50972L10.922 3.15029L10.7548 3.25991L10.9903 3.61934L11.1576 3.50972ZM11.4069 3.27544L11.0272 3.47612L11.1207 3.65294L11.5004 3.45226L11.4069 3.27544ZM12.7174 2.96048C12.2616 2.95659 11.8118 3.06464 11.4074 3.27515L11.4998 3.45255C11.8751 3.25715 12.2926 3.15686 12.7157 3.16047L12.7174 2.96048ZM15.5568 5.72157C15.5568 4.20202 14.2813 2.96048 12.7166 2.96048V3.16048C14.1761 3.16048 15.3568 4.31764 15.3568 5.72157H15.5568ZM13.6002 8.34365C14.7766 7.96727 15.5568 6.92281 15.5568 5.72157H15.3568C15.3568 6.83236 14.6362 7.80221 13.5392 8.15316L13.6002 8.34365ZM5.57227 11.9255H11.2251V11.7255H5.57227V11.9255ZM5.67227 12.7677V11.8255H5.47227V12.7677H5.67227ZM11.2251 12.6677H5.57227V12.8677H11.2251V12.6677ZM11.1251 11.8255V12.7677H11.3251V11.8255H11.1251Z" fill="black" mask="url(#path-1-outside-1_68_1518)"/>
</svg>
